<?xml version="1.0" encoding="utf-8"?>
<!-- Generator: Adobe Illustrator 21.1.0, SVG Export Plug-In . SVG Version: 6.00 Build 0)  -->
<svg version="1.1" id="Capa_1" xmlns="http://www.w3.org/2000/svg" xmlns:xlink="http://www.w3.org/1999/xlink" x="0px" y="0px"
	 viewBox="0 0 483.5 456" style="enable-background:new 0 0 483.5 456;" xml:space="preserve">
<g>
	<g>
		<path d="M352.6,395.5l7-7L216.9,245.8l0-203.3h-9.7c-55-0.7-107.2,20.9-146.2,59.9c-80.8,80.8-81.5,212.3-0.7,293.1
			S271.9,476.2,352.6,395.5z M74.8,116.3c32.7-32.7,75.9-52.2,122.5-54.3v190.8l135.1,135.1c-73.1,66.1-187.3,63.4-257.6-7
			C1.7,307.7,1.7,189.4,74.8,116.3z"/>
	</g>
</g>
<g>
	<g>
		<path d="M386.8,53.6l-7.7-6.3C342.9,16.7,295.5,0,248.2,0l-9.7,0v235.3L386.8,53.6z M359.6,55.7l-101,123.2V20.2
			C294.9,21.6,330.4,34.8,359.6,55.7z"/>
	</g>
</g>
<g>
	<g>
		<path d="M423,380.8c80.8-80.8,80.8-211.7,0-292.4c-4.9-4.9-9.7-9.7-15.3-13.9l-7.7-6.3L263.5,235.3L416,387.8L423,380.8z
			 M290,233.9L402.8,96.1c2.1,2.1,4.2,4.2,6.3,6.3c71,71,73.1,184.5,7,257.6L290,233.9z"/>
	</g>
</g>
</svg>
