<?xml version="1.0" encoding="utf-8"?>
<!-- Generator: Adobe Illustrator 22.0.1, SVG Export Plug-In . SVG Version: 6.00 Build 0)  -->
<svg version="1.1" id="Capa_1" xmlns="http://www.w3.org/2000/svg" xmlns:xlink="http://www.w3.org/1999/xlink" x="0px" y="0px"
	 viewBox="0 153.9 612 485.1" style="enable-background:new 0 153.9 612 485.1;" xml:space="preserve">
<g>
	<path d="M612,406.6c0-57.9-47.1-105.1-105.1-105.1c-11.7,0-23.2,1.9-34.2,5.7c-22-23-53.1-37.4-87.4-37.4c-13.1,0-25.8,2.1-37.9,6
		c-1.7-17.8-14.6-32.4-31.5-36.5V205h21.8c5.5,0,9.9-4.4,9.9-9.9c0-5.5-4.4-9.9-9.9-9.9h-21.8v-21.8c0-5.5-4.4-9.9-9.9-9.9
		s-9.9,4.4-9.9,9.9v21.8h-21.8c-5.5,0-9.9,4.4-9.9,9.9c0,5.5,4.4,9.9,9.9,9.9h21.8v34.2c-17,4.2-29.9,18.7-31.5,36.5
		c-12-4-24.8-6-37.9-6c-34.3,0-65.4,14.4-87.4,37.4c-11-3.8-22.4-5.7-34.2-5.7C47.1,301.5,0,348.6,0,406.6
		c0,54.6,41.9,99.6,95.2,104.6v73c-6.5,5.7-10.6,14-10.6,23.3c0,17.1,13.9,31.1,31.1,31.1h380.7c17.1,0,31.1-13.9,31.1-31.1
		c0-9.3-4.1-17.6-10.6-23.3v-73C570.1,506.2,612,461.2,612,406.6z M506.9,321.3c47,0,85.3,38.2,85.3,85.3c0,47-38.2,85.3-85.3,85.3
		h-55.3c32.9-21.6,54.7-58.9,54.7-101.1c0-24.7-7.4-47.7-20.2-66.8C492.8,322.2,499.8,321.3,506.9,321.3z M486.4,390.7
		c0,55.8-45.4,101.1-101.1,101.1h-69.4V317.2c18.8-17.8,43.3-27.6,69.4-27.6C441.1,289.6,486.4,335,486.4,390.7z M327.8,279.7
		c0,1.7-0.2,3.3-0.6,4.9c-3.9,2.1-7.7,4.5-11.3,7.1v-31.3C323,263.9,327.8,271.2,327.8,279.7z M284.2,279.7
		c0-8.5,4.8-15.8,11.9-19.4v31.3c-3.7-2.6-7.4-4.9-11.3-7.1C284.4,283,284.2,281.3,284.2,279.7z M226.7,289.6
		c26.1,0,50.6,9.8,69.4,27.6v174.6h-69.4c-55.8,0-101.1-45.4-101.1-101.1S170.9,289.6,226.7,289.6z M19.8,406.6
		c0-47,38.2-85.3,85.3-85.3c7.1,0,14.1,0.9,20.9,2.6c-12.8,19.2-20.2,42.1-20.2,66.8c0,42.2,21.8,79.5,54.7,101.1h-55.3
		C58.1,491.8,19.8,453.6,19.8,406.6z M496.3,618.7H115.7c-6.2,0-11.2-5-11.2-11.2c0-6.2,5-11.2,11.2-11.2h380.7
		c6.2,0,11.2,5,11.2,11.2C507.6,613.7,502.5,618.7,496.3,618.7z M115.7,576.4H115v-13.3c0.2,0,0.4,0,0.7,0
		c10.6,0,19.2-8.6,19.2-19.2c0-10.6-8.6-19.2-19.2-19.2c-0.2,0-0.4,0-0.7,0v-13.3h382v13.3c-0.2,0-0.4,0-0.7,0
		c-10.6,0-19.2,8.6-19.2,19.2c0,10.6,8.6,19.2,19.2,19.2c0.2,0,0.4,0,0.7,0v13.3h-0.7H115.7z"/>
	<path d="M316.6,534.1h-21.1c-5.5,0-9.9,4.4-9.9,9.9c0,5.5,4.4,9.9,9.9,9.9h21.1c5.5,0,9.9-4.4,9.9-9.9
		C326.5,538.6,322.1,534.1,316.6,534.1z"/>
	<path d="M443.5,534.1h-21.1c-5.5,0-9.9,4.4-9.9,9.9c0,5.5,4.4,9.9,9.9,9.9h21.1c5.5,0,9.9-4.4,9.9-9.9
		C453.4,538.6,448.9,534.1,443.5,534.1z"/>
	<path d="M189.7,534.1h-21.1c-5.5,0-9.9,4.4-9.9,9.9c0,5.5,4.4,9.9,9.9,9.9h21.1c5.5,0,9.9-4.4,9.9-9.9
		C199.6,538.6,195.2,534.1,189.7,534.1z"/>
	<path d="M242.6,524.9c-10.6,0-19.2,8.6-19.2,19.2c0,10.6,8.6,19.2,19.2,19.2c10.6,0,19.2-8.6,19.2-19.2
		C261.7,533.5,253.1,524.9,242.6,524.9z"/>
	<path d="M369.4,524.9c-10.6,0-19.2,8.6-19.2,19.2c0,10.6,8.6,19.2,19.2,19.2c10.6,0,19.2-8.6,19.2-19.2
		C388.6,533.5,380,524.9,369.4,524.9z"/>
</g>
</svg>
