<?xml version="1.0" encoding="utf-8"?>
<!-- Generator: Adobe Illustrator 21.1.0, SVG Export Plug-In . SVG Version: 6.00 Build 0)  -->
<svg version="1.1" id="Capa_1" xmlns="http://www.w3.org/2000/svg" xmlns:xlink="http://www.w3.org/1999/xlink" x="0px" y="0px"
	 viewBox="0 0 244.4 297" style="enable-background:new 0 0 244.4 297;" xml:space="preserve">
<g>
	<path d="M76.4,253.9l-0.1-0.1l16.5-12.9l-30.6-55.7l-0.1-0.2C25,199.9,0,233.1,0,297h97.5L76.4,253.9L76.4,253.9z"/>
	<path d="M151.9,240.8l16.4,13.1l-0.1,0.1l0.1,0.1l-21.2,43h97.3c0-63.9-25-97.1-62.1-112l-0.1,0.2L151.9,240.8z"/>
	<path d="M122.2,206c-4.3,0-8.6-0.3-12.7-0.9l6.8,12.3l-5.4,79.5h22.7l-5.4-79.5l6.8-12.3C130.8,205.7,126.5,206,122.2,206z"/>
	<path d="M201.9,110.6c-5.8,0.8-15,1.9-26,2.9v12c0,11.7-9.8,21.3-21.5,21.3s-21.5-9.5-21.5-21.3v-9.6c-3,0.1-7.2,0.1-11,0.1
		s-8,0-11-0.1v9.6c0,11.7-9.8,21.3-21.5,21.3s-21.5-9.5-21.5-21.3v-12c-11-1-19.9-2.1-25.7-2.9c0,0,0.1,0,0.1,0
		c0.2,43.9,36,79.4,79.9,79.4c0,0,0,0,0,0C166.2,190,201.7,154.5,201.9,110.6z"/>
	<path d="M44,94.6c12.6,1.7,43,5.4,78.2,5.4s65.6-3.6,78.2-5.4c0,0,0-0.1,0-0.1c5.9-0.9,11.1-1.8,15.7-2.9
		c13-2.9,20.6-6.5,20.6-10.3c0-4.5-10.5-8.6-27.9-11.8c-2.7-0.5-5.6-1-8.7-1.4c-0.1-5.6-0.9-11.1-2.2-16.3C190.7,22,165.7,0,135.6,0
		h-26.9C78.1,0,52,22.9,45.1,53.6c-1.1,4.7-1.7,9.6-1.8,14.6c-2.7,0.4-5.3,0.8-7.7,1.3C18.2,72.7,7.7,76.8,7.7,81.3
		c0,3.8,7.6,7.4,20.6,10.3c4.6,1,9.9,2,15.7,2.9C44,94.5,44,94.6,44,94.6z"/>
</g>
</svg>
