<?xml version="1.0" encoding="utf-8"?>
<!-- Generator: Adobe Illustrator 22.0.1, SVG Export Plug-In . SVG Version: 6.00 Build 0)  -->
<svg version="1.1" id="Capa_1" xmlns="http://www.w3.org/2000/svg" xmlns:xlink="http://www.w3.org/1999/xlink" x="0px" y="0px"
	 viewBox="0 120.4 612 549.6" style="enable-background:new 0 120.4 612 549.6;" xml:space="preserve">
<path d="M611.9,295.7c0.1-0.4,0.1-0.8,0.1-1.3c0-0.5,0-1,0-1.5c0-0.4-0.1-0.8-0.2-1.3c-0.1-0.5-0.3-1-0.4-1.4
	c-0.1-0.2-0.1-0.5-0.2-0.7c-0.1-0.2-0.2-0.3-0.3-0.5c-0.1-0.2-0.1-0.4-0.2-0.5l-102-163.2c-0.5-0.7-1-1.4-1.6-2c0,0,0,0,0,0
	c-0.9-0.8-1.9-1.4-3-1.9c-0.1-0.1-0.2-0.2-0.4-0.2c-0.1,0-0.2,0-0.3-0.1c-1-0.3-2.1-0.6-3.2-0.6H112.2c-1.1,0-2.2,0.2-3.2,0.6
	c-0.1,0-0.2,0-0.3,0.1c-0.2,0.1-0.2,0.2-0.4,0.2c-1.1,0.4-2.1,1-2.9,1.8c-0.1,0.1-0.1,0.1-0.2,0.1c-0.6,0.6-1.2,1.3-1.7,2L1.5,288.5
	c-0.1,0.2-0.1,0.4-0.2,0.5c-0.1,0.2-0.2,0.3-0.3,0.5c-0.1,0.2-0.1,0.5-0.2,0.7c-0.2,0.5-0.3,0.9-0.4,1.4c-0.1,0.4-0.2,0.8-0.2,1.3
	C0,293.5,0,294,0,294.5c0,0.4,0.1,0.8,0.1,1.3c0.1,0.5,0.2,1,0.4,1.4c0.1,0.4,0.3,0.8,0.5,1.2c0.1,0.2,0.1,0.4,0.2,0.6
	c0.2,0.3,0.4,0.5,0.6,0.8c0.1,0.2,0.2,0.4,0.4,0.7L298,667.5c0,0,0,0.1,0.1,0.1l0.1,0.1c0,0,0.1,0.1,0.1,0.1c0.8,1,1.9,1.8,3,2.4
	c0.3,0.2,0.6,0.3,0.9,0.4c1.2,0.5,2.5,0.9,3.9,0.9c1.2,0,2.3-0.2,3.5-0.6c0.2-0.1,0.3-0.2,0.5-0.3c0.5-0.2,0.9-0.6,1.4-0.9
	c0.8-0.5,1.5-1,2.1-1.7c0.1-0.2,0.4-0.2,0.5-0.4l295.9-367.3c0.2-0.2,0.2-0.4,0.4-0.7c0.2-0.3,0.4-0.5,0.6-0.8
	c0.1-0.2,0.1-0.4,0.2-0.6c0.2-0.4,0.3-0.8,0.5-1.2C611.6,296.7,611.8,296.2,611.9,295.7z M327.4,140.9h157.7L435.6,274L327.4,140.9z
	 M417.2,283.8H194.8L306,146.9L417.2,283.8z M175.7,274.9l-49-134h157.8L175.7,274.9z M424.3,304.2L304.2,626.6L186.4,304.2H424.3z
	 M502.2,153.7l81.3,130.1H453.7L502.2,153.7z M109.7,153.9l47.5,129.9H28.5L109.7,153.9z M164.7,304.2l110.6,302.6L31.5,304.2H164.7
	z M330.5,614.6l115.7-310.5h134.4L330.5,614.6z"/>
</svg>
