<?xml version="1.0" encoding="utf-8"?>
<!-- Generator: Adobe Illustrator 22.0.1, SVG Export Plug-In . SVG Version: 6.00 Build 0)  -->
<svg version="1.1" id="Слой_1" xmlns="http://www.w3.org/2000/svg" xmlns:xlink="http://www.w3.org/1999/xlink" x="0px" y="0px"
	 viewBox="0 90.5 612 613.5" style="enable-background:new 0 90.5 612 613.5;" xml:space="preserve">
<g>
	<g>
		<path d="M306,90C136.8,90,0,226.8,0,396c0,169.2,136.8,306,306,306c169.2,0,306-136.8,306-306C612,226.8,475.2,90,306,90z
			 M306,675.9C151,675.9,26.1,551,26.1,396C26.1,241,151,116.1,306,116.1c155,0,279.9,124.9,279.9,279.9
			C585.9,551,461,675.9,306,675.9z"/>
		<path d="M306,160.3C175.7,160.3,70.3,265.7,70.3,396S175.7,631.7,306,631.7S541.7,526.3,541.7,396S436.3,160.3,306,160.3z
			 M306,605.7c-115.9,0-209.7-93.8-209.7-209.7S190.1,186.3,306,186.3S515.7,280.1,515.7,396S421.9,605.7,306,605.7z"/>
		<path d="M390.4,398.6C376.1,387,354,377.9,322.7,370h-1.2v-74.2c20.9,2.6,39.1,10.5,57.3,23.5l26.1-36.5
			c-26-18.2-53.3-27.4-83.3-30V232h-26.1v19.5c-24.7,1.4-46.8,9.1-62.4,23.5c-16.9,14.2-24.7,32.5-24.7,56
			c0,23.5,6.5,40.3,20.9,52.1c14.4,11.6,36.5,20.7,66.4,28.6v78.2c-23.5-3.9-47-15.6-69.1-35.1L198,489.8
			c29.9,24.7,62.4,39.1,98.9,43v28.6h25.9v-28.6c27.4-1.4,48.1-9.1,65.1-23.5c16.9-14.4,24.7-34,24.7-57.3
			C412.5,428.6,404.8,410.4,390.4,398.6L390.4,398.6z M297,362.2c-14.4-5.2-24.7-10.4-30-15.6c-5.2-5.2-7.9-11.7-7.9-20.9
			c0-9.1,3.9-15.6,10.4-22.1s15.6-9.1,27.5-10.5V362.2L297,362.2z M352.8,479.3c-6.5,5.2-16.9,9.1-30,10.4v-71.6
			c15.6,5.2,26.1,10.4,32.6,15.6c6.5,5.1,9.1,13,9.1,22.1C364.6,464.9,360.7,472.8,352.8,479.3z"/>
	</g>
</g>
</svg>
