<?xml version="1.0" encoding="utf-8"?>
<!-- Generator: Adobe Illustrator 21.1.0, SVG Export Plug-In . SVG Version: 6.00 Build 0)  -->
<svg version="1.1" id="Capa_1" xmlns="http://www.w3.org/2000/svg" xmlns:xlink="http://www.w3.org/1999/xlink" x="0px" y="0px"
	 viewBox="0 0 378.6 378.6" style="enable-background:new 0 0 378.6 378.6;" xml:space="preserve">
<path d="M377.4,161c-5.1-48.9-31.1-92.5-73.2-122.9C259,5.5,200.5-6.9,147.6,4.8C97.4,16,53.3,48.3,26.6,93.5
	C-0.1,138.7-7.1,193,7.4,242.4c7.8,26.7,21.7,51.7,40.2,72.5c18.6,21,41.9,37.7,67.5,48.5c23.6,9.9,48.6,14.8,73.7,14.8
	c34.1,0,68.1-9.1,97.9-27.1L265.6,316c-40.6,24.5-90.9,28-134.7,9.7c-40.3-17-71.8-52.4-84.2-94.8c-11.3-38.6-5.8-81.1,15.1-116.6
	c20.9-35.5,55.4-60.8,94.6-69.5c41.6-9.2,87.9,0.7,123.9,26.6c32.5,23.4,52.5,56.8,56.4,93.9c2.5,24,0.3,42.9-6.5,56.2
	c-14.5,28.2-35.5,28.4-43.9,27.1c-0.3,0-0.5-0.1-0.6-0.1c-2.4-3.7-2.1-17.5-2-23.5c0-2.3,0.1-4.6,0.1-6.7V106.3h-31.3
	c-4-3.3-8.2-6.3-12.7-8.9c-17.1-10.2-36.9-15.6-57.3-15.6c-29.1,0-56.4,10.6-76.9,29.8C73,142.2,62.9,192.3,81,233.6
	c8.6,19.6,23.1,35.9,41.9,47.1c17.6,10.4,38.2,16,59.5,16c24.4,0,46.8-6.7,64.9-19.5c1.9-1.3,3.8-2.8,5.6-4.2
	c6.4,8.8,15.8,14.4,27.5,16.1c16.1,2.4,32.3-0.3,46.8-7.7c16.5-8.4,29.7-22.3,39.4-41.3C377.2,219.3,380.8,193.5,377.4,161z
	 M242.3,224.5c-0.9,1.3-2.2,2.9-3,3.8c-0.6,0.8-1.2,1.5-1.6,2.1c-3.9,5-8.6,9.5-14.1,13.4c-11.3,7.9-25.2,12-41.3,12
	c-29,0-53.5-14.8-63.8-38.5c-11.3-25.7-5.1-56.9,15-75.7c12.7-11.9,30.5-18.8,48.9-18.8c13,0,25.6,3.4,36.3,9.8
	c6.8,4.1,12.9,9.3,17.9,15.7c0.5,0.6,1.1,1.3,1.7,2.1c1,1.1,2.8,3.4,4,5.1L242.3,224.5L242.3,224.5z"/>
</svg>
