<?xml version="1.0" encoding="utf-8"?>
<!-- Generator: Adobe Illustrator 22.0.1, SVG Export Plug-In . SVG Version: 6.00 Build 0)  -->
<svg version="1.1" id="Capa_1" xmlns="http://www.w3.org/2000/svg" xmlns:xlink="http://www.w3.org/1999/xlink" x="0px" y="0px"
	 viewBox="0 0 612 546.2" style="enable-background:new 0 0 612 546.2;" xml:space="preserve">
<g>
	<g id="Attention">
		<g>
			<path d="M605.2,468.8l-255-442C341.4,11.5,324.9,1.2,306,1.2s-35.4,10.3-44.2,25.6l-255,442C2.5,476.2,0,484.9,0,494.2
				c0,28.2,22.8,51,51,51h510c28.2,0,51-22.8,51-51C612,484.9,609.5,476.2,605.2,468.8z M51,494.2l255-442.1h0.1l0,0.1l255,441.9
				L51,494.2z M306,375.2c-18.8,0-34,15.2-34,34c0,18.8,15.2,34,34,34s34-15.2,34-34S324.8,375.2,306,375.2z M272,222.2
				c0,1.9,0.2,3.9,0.5,5.7l16.7,99.1c1.4,8,8.4,14.1,16.8,14.1s15.4-6.1,16.8-14.1l16.7-99.1c0.3-1.9,0.5-3.8,0.5-5.7
				c0-18.8-15.2-34-34-34C287.2,188.2,272,203.4,272,222.2z"/>
		</g>
	</g>
</g>
</svg>
