<?xml version="1.0" encoding="utf-8"?>
<!-- Generator: Adobe Illustrator 22.0.1, SVG Export Plug-In . SVG Version: 6.00 Build 0)  -->
<svg version="1.1" id="Layer_1" xmlns="http://www.w3.org/2000/svg" xmlns:xlink="http://www.w3.org/1999/xlink" x="0px" y="0px"
	 viewBox="0 180.7 612 430.5" style="enable-background:new 0 180.7 612 430.5;" xml:space="preserve">
<g>
	<g>
		<path d="M405.7,592l-62-144.6c-10.1-23.5-33.1-38.7-58.6-38.7H122.9c-25.6,0-48.5,15.2-58.6,38.6L1,595c-1.7,3.9-1.3,8.4,1.1,12
			c2.3,3.6,6.3,5.7,10.6,5.7h382.5c0.2,0,0.3,0,0.5,0c7,0,12.8-5.7,12.8-12.8C408.5,597,407.5,594.2,405.7,592z M32.1,587.3
			l55.6-129.8c6-14.1,19.8-23.2,35.2-23.2h162.2c15.3,0,29.1,9.1,35.2,23.2l55.6,129.8H32.1z"/>
	</g>
</g>
<g>
	<g>
		<path d="M267.7,459.8H122.9c-5.1,0-9.7,3-11.7,7.7L78.3,544c-2.8,6.5,0.2,13.9,6.7,16.7c1.6,0.7,3.3,1,5,1c4.9,0,9.7-2.9,11.7-7.7
			l29.5-68.8h136.5c7,0,12.8-5.7,12.8-12.8C280.5,465.5,274.8,459.8,267.7,459.8z"/>
	</g>
</g>
<g>
	<g>
		<path d="M369.8,230.2H224c-5.1,0-9.7,3-11.7,7.7l-32.8,76.5c-2.8,6.5,0.2,14,6.7,16.7c1.6,0.7,3.3,1,5,1c4.9,0,9.6-2.9,11.7-7.7
			l29.5-68.8h137.3c7,0,12.8-5.7,12.8-12.8C382.5,236,376.8,230.2,369.8,230.2z"/>
	</g>
</g>
<g>
	<g>
		<path d="M507.7,362.5l-62-144.6c-10.1-23.5-33.1-38.7-58.6-38.7H224.9c-25.6,0-48.5,15.2-58.6,38.6L103,365.5
			c-1.7,3.9-1.3,8.4,1.1,12c2.3,3.6,6.3,5.7,10.6,5.7h382.5c0.2,0,0.3,0,0.5,0c7,0,12.8-5.7,12.8-12.8
			C510.5,367.5,509.5,364.7,507.7,362.5z M134.1,357.7l55.6-129.8c6-14.1,19.8-23.2,35.2-23.2h162.2c15.3,0,29.1,9.1,35.2,23.2
			l55.6,129.8H134.1z"/>
	</g>
</g>
<g>
	<g>
		<path d="M611,595l-63.2-147.6c-10.1-23.5-33.1-38.7-58.6-38.7H369.8c-7,0-12.8,5.7-12.8,12.8c0,7,5.7,12.8,12.8,12.8h119.4
			c15.3,0,29.1,9.1,35.2,23.2l55.6,129.8H446.3c-7,0-12.8,5.7-12.8,12.8c0,7,5.7,12.8,12.8,12.8h153c4.3,0,8.3-2.1,10.6-5.7
			C612.2,603.5,612.7,598.9,611,595z"/>
	</g>
</g>
<g>
	<g>
		<path d="M471.8,459.8h-76.5c-7,0-12.8,5.7-12.8,12.8c0,7,5.7,12.8,12.8,12.8h76.5c7,0,12.8-5.7,12.8-12.8
			C484.5,465.5,478.8,459.8,471.8,459.8z"/>
	</g>
</g>
</svg>
