<?xml version="1.0" encoding="utf-8"?>
<!-- Generator: Adobe Illustrator 21.1.0, SVG Export Plug-In . SVG Version: 6.00 Build 0)  -->
<svg version="1.1" id="Layer_1" xmlns="http://www.w3.org/2000/svg" xmlns:xlink="http://www.w3.org/1999/xlink" x="0px" y="0px"
	 viewBox="0 0 489 489" style="enable-background:new 0 0 489 489;" xml:space="preserve">
<g>
	<path d="M244.5,0C109.3,0,0,109.3,0,244.5S109.3,489,244.5,489S489,379.7,489,244.5S379.7,0,244.5,0z M170.7,33.3
		c-12.9,18.1-23.9,37.2-33.1,57.2H82.1C106.3,64.9,136.6,45.1,170.7,33.3L170.7,33.3z M64.6,111.3h64.2
		c-15.1,38.9-23.4,80.4-24.6,122.8H21.1C23.2,188.2,39,145.9,64.6,111.3z M64.6,377.7C39,343.1,23.2,300.8,21.1,254.9h83.1
		c1.2,42.4,9.8,83.9,25,122.8H64.6z M82.1,398.5h56c9.3,20,20.3,39.3,33,57.4C136.9,444.1,106.4,424.2,82.1,398.5z M234.1,468
		c-10.4-0.5-20.7-1.7-30.7-3.5c-16.6-20.5-30.8-42.6-42.3-65.9h73V468z M234.1,377.7h-82.5c-16.1-38.8-25.3-80.3-26.6-122.8h109.1
		V377.7z M234.1,234.1H125c1.3-42.4,10.4-84,26.4-122.8h82.7V234.1z M234.2,90.5h-0.1h-73.2c11.6-23.5,25.8-45.6,42.5-65.9
		c10-1.9,20.3-3,30.8-3.5V90.5z M424.4,111.3c25.6,34.6,41.5,76.8,43.5,122.8h-83.1c-1.2-42.4-9.8-83.9-25-122.8H424.4z M406.9,90.5
		h-56c-9.3-20-20.3-39.3-33.1-57.4C352.1,44.9,382.6,64.8,406.9,90.5z M254.9,21.1c10.4,0.5,20.7,1.7,30.7,3.5
		c16.6,20.5,30.8,42.6,42.3,65.9h-73V21.1z M254.9,111.3h82.5c16.1,38.7,25.3,80.3,26.6,122.8H254.9V111.3z M254.9,254.9H364
		c-1.3,42.4-10.4,84-26.4,122.8h-82.7L254.9,254.9L254.9,254.9z M254.8,467.9v-69.4h0.1h73.2c-11.6,23.5-25.8,45.6-42.5,65.9
		C275.6,466.3,265.3,467.4,254.8,467.9L254.8,467.9z M317.8,455.9c12.7-18.1,23.7-37.4,32.9-57.4H407
		C382.6,424.2,352.1,444.1,317.8,455.9L317.8,455.9z M359.5,377.7c15-38.9,23.5-80.4,25.2-122.8H468c-2.1,45.9-17.9,88.2-43.5,122.8
		H359.5L359.5,377.7z"/>
</g>
</svg>
