<?xml version="1.0" encoding="utf-8"?>
<!-- Generator: Adobe Illustrator 21.1.0, SVG Export Plug-In . SVG Version: 6.00 Build 0)  -->
<svg version="1.1" id="Capa_1" xmlns="http://www.w3.org/2000/svg" xmlns:xlink="http://www.w3.org/1999/xlink" x="0px" y="0px"
	 viewBox="0 0 442 442" style="enable-background:new 0 0 442 442;" xml:space="preserve">
<g>
	<path d="M216,211.8l-120,120c-3.9,3.9-3.9,10.2,0,14.1c2,2,4.5,2.9,7.1,2.9s5.1-1,7.1-2.9l120-120c3.9-3.9,3.9-10.2,0-14.1
		C226.2,207.9,219.9,207.9,216,211.8z"/>
	<path d="M403.2,38.8C378.2,13.8,345,0,309.6,0S241,13.8,216,38.8c-38.7,38.7-49.4,96.6-27.9,146.3L3.1,370c-1.9,1.9-2.9,4.4-2.9,7
		l-0.1,54.8c0,0.1,0,0.2,0,0.3c0,0,0,0,0,0c0,0,0,0,0,0c0.1,2.5,1,4.9,2.9,6.8c1.9,1.9,4.4,2.9,6.9,2.9c0,0,0,0,0,0c0,0,0,0,0,0
		c0,0,0.1,0,0.2,0l106.2,0.1c0,0,0,0,0,0c2.6,0,5.2-1.1,7.1-2.9c1.9-1.9,2.9-4.4,2.9-7.1v-41.7H168c5.5,0,10-4.5,10-10l0-41.7h41.7
		c5.5,0,10-4.5,10-10v-47.5l27.3-27.3c17,7.4,34.9,11,52.7,11c34.3,0,68.1-13.4,93.6-38.8C454.8,174.4,454.8,90.4,403.2,38.8z
		 M389.1,211.8c-34.3,34.3-86.4,42.7-129.8,21.1c-3.9-1.9-8.5-1.2-11.5,1.9l-35.2,35.2c-1.9,1.9-2.9,4.4-2.9,7.1v41.7H168
		c-5.5,0-10,4.5-10,10l0,41.7h-41.7c-5.5,0-10,4.5-10,10V422l-72.1-0.1l47.7-47.7c3.9-3.9,3.9-10.2,0-14.1c-3.9-3.9-10.2-3.9-14.1,0
		l-47.6,47.6l0.1-26.4l187-187c3-3,3.8-7.7,1.9-11.5c-21.7-43.3-13.2-95.5,21.1-129.8C251.4,31.7,279.6,20,309.6,20
		s58.2,11.7,79.5,32.9s32.9,49.4,32.9,79.5S410.3,190.6,389.1,211.8z"/>
	<path d="M303.4,72.1L303.4,72.1c-18.3,18.3-18.3,48.1,0,66.5c9.2,9.2,21.2,13.7,33.2,13.7c12,0,24.1-4.6,33.2-13.7
		c18.3-18.3,18.3-48.1,0-66.5C351.5,53.8,321.7,53.8,303.4,72.1z M355.7,124.5c-10.5,10.5-27.7,10.5-38.2,0
		c-10.5-10.5-10.5-27.7,0-38.2l0,0c10.5-10.5,27.7-10.5,38.2,0C366.2,96.8,366.2,113.9,355.7,124.5z"/>
</g>
</svg>
