<?xml version="1.0" encoding="utf-8"?>
<!-- Generator: Adobe Illustrator 22.0.1, SVG Export Plug-In . SVG Version: 6.00 Build 0)  -->
<svg version="1.1" id="Capa_1" xmlns="http://www.w3.org/2000/svg" xmlns:xlink="http://www.w3.org/1999/xlink" x="0px" y="0px"
	 viewBox="0 0 60 57" style="enable-background:new 0 0 60 57;" xml:space="preserve">
<path d="M30,0C13.5,0,0,12.1,0,27c0,5.2,1.6,10.2,4.8,14.6C4.2,48.2,2.6,53,0.3,55.3c-0.3,0.3-0.4,0.8-0.2,1.2C0.3,56.8,0.6,57,1,57
	c0,0,0.1,0,0.1,0c0.4-0.1,9.8-1.4,16.6-5.3c3.9,1.6,8,2.3,12.2,2.3c16.5,0,30-12.1,30-27S46.5,0,30,0z M16,18h15c0.6,0,1,0.4,1,1
	s-0.4,1-1,1H16c-0.6,0-1-0.4-1-1S15.4,18,16,18z M44,36H16c-0.6,0-1-0.4-1-1s0.4-1,1-1h28c0.6,0,1,0.4,1,1S44.6,36,44,36z M44,28H16
	c-0.6,0-1-0.4-1-1s0.4-1,1-1h28c0.6,0,1,0.4,1,1S44.6,28,44,28z"/>
</svg>
