<?xml version="1.0" encoding="utf-8"?>
<!-- Generator: Adobe Illustrator 22.0.1, SVG Export Plug-In . SVG Version: 6.00 Build 0)  -->
<svg version="1.1" id="Слой_1" xmlns="http://www.w3.org/2000/svg" xmlns:xlink="http://www.w3.org/1999/xlink" x="0px" y="0px"
	 viewBox="0 89.5 612 613" style="enable-background:new 0 89.5 612 613;" xml:space="preserve">
<g>
	<g>
		<path d="M306,90C136.8,90,0,226.8,0,396s136.8,306,306,306s306-136.8,306-306S475.2,90,306,90z M306,666
			C158.4,666,36,543.6,36,396s122.4-270,270-270s270,122.4,270,270S453.6,666,306,666z"/>
		<path d="M381.6,331.2c0,10.8,7.2,18,18,18c10.8,0,18-7.2,18-18c0-42.1-40.9-75.2-93.6-81.5V234c0-10.8-7.2-18-18-18
			c-10.8,0-18,7.2-18,18v15.7c-52.7,6.3-93.6,39.4-93.6,81.5s40.9,75.2,93.6,81.5v93.3c-31.8-5.3-57.6-23.9-57.6-45.1
			c0-10.8-7.2-18-18-18c-10.8,0-18,7.2-18,18c0,42.1,40.9,75.2,93.6,81.5V558c0,10.8,7.2,18,18,18c10.8,0,18-7.2,18-18v-15.7
			c52.7-6.3,93.6-39.4,93.6-81.5s-40.9-75.2-93.6-81.5v-93.3C355.8,291.3,381.6,309.9,381.6,331.2L381.6,331.2z M230.4,331.2
			c0-21.3,25.8-39.9,57.6-45.1v90.3C256.2,371.1,230.4,352.5,230.4,331.2L230.4,331.2z M381.6,460.8c0,21.3-25.8,39.9-57.6,45.1
			v-90.3C355.8,420.9,381.6,439.5,381.6,460.8z"/>
	</g>
</g>
</svg>
