<?xml version="1.0" encoding="utf-8"?>
<!-- Generator: Adobe Illustrator 22.0.1, SVG Export Plug-In . SVG Version: 6.00 Build 0)  -->
<svg version="1.1" id="Layer_1" xmlns="http://www.w3.org/2000/svg" xmlns:xlink="http://www.w3.org/1999/xlink" x="0px" y="0px"
	 viewBox="45.5 87.5 520.1 613.8" style="enable-background:new 45.5 87.5 520.1 613.8;" xml:space="preserve">
<g>
	<path d="M52.1,401c5.6,20.5,20.6,48.1,22.9,52.4c2.8,6.4,4.5,13,5.1,19.9l21.1,207c1.3,12.4,11.6,21.8,24.1,21.8h36.5
		c12.5,0,22.9-9.4,24.1-21.8l21.1-207c0.8-7,2.5-13.9,5.4-20.3c2.5-5.8-0.1-12.4-5.8-14.9c-5.8-2.5-12.4,0.1-14.9,5.8
		c-3.8,8.6-6.3,17.8-7.1,27.1l-21.1,207c-0.1,0.8-0.8,1.4-1.5,1.4h-36.5c-0.8,0-1.5-0.6-1.5-1.4l-21.4-207.1
		c-1-9.4-3.4-18.5-7.1-27.1c-0.1-0.4-0.3-0.6-0.5-1C95,442.5,79.3,414.1,74,395c-5.8-21.4-7.4-67.9-2.6-76.1
		c3.8-3.8,5.4-5.3,9.3-8.1c9.9-7.3,21.2-13.1,28.6-16.6l25.3,34.8c2.1,2.9,5.5,4.6,9.1,4.6s7-1.8,9.1-4.6l30.6-42.1
		c3.6-5,2.5-12.1-2.5-15.9c-5-3.6-12.1-2.5-15.9,2.5l-21.5,29.5l-21.3-29.4c-3-4.3-8.6-5.8-13.4-3.9c-0.9,0.4-23.1,9.4-41.6,23
		c-5.3,3.9-7.8,6.3-12.1,10.6C39.1,319.3,48,385.8,52.1,401z"/>
	<path d="M142.6,254.9c0.3,0,0.5,0,0.8,0c0.1,0,0.4,0,0.5,0c0.3,0,0.5,0,0.9,0c14.5-0.4,26.7-5.6,35.5-15.5c18.6-21,16-56,15.5-60.4
		c-1.9-38.6-28.7-52.3-51.1-52.3c-0.4,0-0.8,0-1,0s-0.6,0-1,0c-22.4,0-49.1,13.8-51.1,52.3c-0.4,4.4-3.1,39.4,15.5,60.4
		C115.9,249.3,128.1,254.6,142.6,254.9z M114.1,181c0-0.3,0-0.5,0-0.8c1.3-27,18.4-31,28.5-31h0.5c0.3,0,0.6,0,0.9,0h0.5
		c10.1,0,27.2,4,28.5,31c0,0.3,0,0.5,0,0.6c0.9,8,0.6,31.4-10,43.4c-4.6,5.3-11,7.9-19.4,7.9c-0.1,0-0.1,0-0.3,0l0,0
		c-8.4-0.1-14.8-2.6-19.4-7.9C113.5,212.4,113.4,189,114.1,181z"/>
	<path d="M405.2,438c-5.8,2.5-8.4,9.3-5.8,14.9c2.9,6.5,4.6,13.3,5.4,20.3l21.1,207c1.3,12.4,11.6,21.8,24.1,21.8h36.5
		c12.5,0,22.9-9.4,24.1-21.8l21.1-207c0.8-6.9,2.4-13.5,5.1-19.9c2.3-4.1,17.4-31.8,22.9-52.4c4.1-15.3,13.1-81.8-2.9-97.8
		c-4.4-4.4-6.9-6.8-12.1-10.6c-18.5-13.6-40.6-22.6-41.6-23c-4.9-2-10.4-0.4-13.4,3.9l-21.5,29.5l-21.6-29.4
		c-3.6-5.1-10.8-6.1-15.9-2.5c-5,3.6-6.1,10.8-2.5,15.9l30.6,42.1c2.1,2.9,5.5,4.6,9.1,4.6s7-1.8,9.1-4.6l25.3-34.8
		c7.4,3.5,18.8,9.4,28.6,16.6c3.8,2.8,5.4,4.4,9.3,8.1c4.8,8.3,3.1,54.8-2.6,76.1c-5.3,19.1-21,47.5-21.1,47.8s-0.4,0.6-0.5,1
		c-3.8,8.6-6.3,17.8-7.1,27.1l-21.1,207c-0.1,0.8-0.8,1.4-1.5,1.4h-36.5c-0.8,0-1.5-0.6-1.5-1.4l-21.1-207c-1-9.4-3.4-18.5-7.1-27.1
		C417.5,438,410.9,435.5,405.2,438z"/>
	<path d="M467,254.9c0.3,0,0.5,0,0.9,0c0.1,0,0.4,0,0.5,0c0.3,0,0.5,0,0.8,0c14.5-0.3,26.8-5.6,35.6-15.5c18.6-21,16-56,15.5-60.4
		c-1.9-38.6-28.6-52.3-51.1-52.3c-0.4,0-0.8,0-1,0s-0.6,0-1,0c-22.4,0-49.1,13.8-51.1,52.3c-0.4,4.4-3.1,39.4,15.5,60.4
		C440.3,249.3,452.5,254.5,467,254.9z M438.5,181c0-0.3,0-0.5,0-0.8c1.3-27,18.4-31,28.5-31h0.5c0.3,0,0.6,0,0.9,0h0.5
		c10.1,0,27.3,4,28.5,31c0,0.3,0,0.5,0,0.6c0.9,8,0.6,31.4-10,43.4c-4.6,5.3-11,7.8-19.4,7.9l0,0c-0.1,0-0.1,0-0.3,0
		c-8.4-0.1-14.8-2.6-19.4-7.9C437.9,212.4,437.8,189,438.5,181z"/>
	<path d="M212,278.1c-16.9,16.9-7.4,87.3-2.9,103.5c6,21.9,22,51.4,24.4,55.6c3,6.9,4.9,14,5.6,21.4l22.5,220.6
		c1.3,12.9,12,22.5,25,22.5h38.9c12.9,0,23.6-9.8,25-22.5L373,458.6c0.8-7.4,2.6-14.6,5.6-21.4c2.4-4.4,18.4-33.8,24.4-55.6
		c4.4-16.3,14-86.6-2.9-103.5c-4.6-4.6-7.3-7.1-12.8-11.3c-19.6-14.5-43.3-24-44.3-24.5c-4.9-2-10.4-0.4-13.4,3.9l-23.9,32.4
		l-23.5-32.4c-3-4.3-8.6-5.8-13.4-3.9c-1,0.4-24.5,10-44.3,24.5C219.3,271,216.5,273.5,212,278.1z M228.3,293.9
		c4.1-4.1,5.9-5.8,10-8.8c10.8-8,23.3-14.4,31.3-18.1l27.3,37.5c2.1,2.9,5.5,4.6,9.1,4.6s7-1.8,9.1-4.6l27.3-37.5
		c7.9,3.8,20.4,10.1,31.3,18.1c4.1,3,5.9,4.6,10,8.8c5.3,8.5,3.6,58.6-2.8,81.8c-5.6,20.5-22.4,50.8-22.6,51c-0.1,0.3-0.4,0.6-0.5,1
		c-4,9.1-6.6,18.8-7.6,28.8L327.5,677c-0.1,1.3-1.1,2.1-2.4,2.1h-38.9c-1.3,0-2.3-0.9-2.4-2.1l-22.5-220.6c-1-9.9-3.5-19.6-7.6-28.8
		c-0.1-0.4-0.3-0.6-0.5-1c-0.1-0.3-17-30.6-22.6-51.1C224.6,352.5,223,302.4,228.3,293.9z"/>
	<path d="M304.8,225.3c0.3,0,0.6,0,0.9,0c0.1,0,0.5,0,0.6,0c0.3,0,0.5,0,0.8,0c15.5-0.3,28-5.8,37.4-16.4
		c19.8-22.1,16.8-59.4,16.4-63.9c-2-40.6-30.1-55-53.8-55c-0.4,0-0.8,0-1.1,0c-0.3,0-0.6,0-1.1,0c-23.5,0-51.8,14.4-53.8,55
		c-0.4,4.5-3.4,41.6,16.4,63.8C276.8,219.4,289.4,224.9,304.8,225.3z M273.6,147.1c0-0.3,0-0.5,0-0.8c1.4-30.5,22.3-33.8,31.1-33.8
		h0.6c0.3,0,0.6,0,0.9,0h0.6c8.9,0,29.8,3.3,31.1,33.8c0,0.3,0,0.5,0,0.6c0.9,8.6,0.8,33.9-10.8,46.8c-5.1,5.8-12.1,8.6-21.3,8.6
		c-0.1,0-0.3,0-0.4,0c-9.1-0.1-16.1-2.9-21.3-8.6C272.9,181,272.8,155.8,273.6,147.1z"/>
</g>
</svg>
