<?xml version="1.0" encoding="utf-8"?>
<!-- Generator: Adobe Illustrator 21.1.0, SVG Export Plug-In . SVG Version: 6.00 Build 0)  -->
<svg version="1.1" id="Capa_1" xmlns="http://www.w3.org/2000/svg" xmlns:xlink="http://www.w3.org/1999/xlink" x="0px" y="0px"
	 viewBox="0 0 874.9 858.1" style="enable-background:new 0 0 874.9 858.1;" xml:space="preserve">
<g>
	<g>
		<path d="M95.4,701.1c30,37.5,65.6,69.7,106,95.6c41.1,26.4,86,45.6,133.4,57l39.8-165.3c-57.3-13.8-109.3-46.9-146.3-93.4
			C190.2,547.2,170,489.6,170,428.3c0-58.6,18.6-114.1,53.7-160.7c1.9-2.5,3.9-5.1,5.9-7.5l97,125.7L435.4,0L29,0.1l95,123.1
			c-12.9,13.2-24.9,27.3-36.1,42.1c-28,37.1-49.7,78.2-64.6,122C7.9,332.6,0,380.1,0,428.4c0,50.4,8.5,99.8,25.3,146.9
			C41.6,620.9,65.1,663.2,95.4,701.1z"/>
		<path d="M779.5,160c-30-37.5-65.6-69.7-106-95.6c-41.1-26.4-86-45.6-133.4-57l-39.8,165.3c57.3,13.8,109.3,46.9,146.3,93.4
			c38.1,47.8,58.3,105.4,58.3,166.7c0,58.6-18.6,114.1-53.7,160.7c-2,2.7-4.1,5.3-6.3,8l-99.6-129.2L436.5,858.1l406.4-0.1
			l-92.4-119.7c13-13.3,25.2-27.5,36.5-42.5c28-37.1,49.7-78.2,64.6-122c15.4-45.3,23.3-92.8,23.3-141.1c0-50.4-8.5-99.8-25.3-146.9
			C833.3,240.2,809.8,197.9,779.5,160z"/>
	</g>
</g>
</svg>
