<?xml version="1.0" encoding="utf-8"?>
<!-- Generator: Adobe Illustrator 22.0.1, SVG Export Plug-In . SVG Version: 6.00 Build 0)  -->
<svg version="1.1" id="Capa_1" xmlns="http://www.w3.org/2000/svg" xmlns:xlink="http://www.w3.org/1999/xlink" x="0px" y="0px"
	 viewBox="47.2 90.5 518.6 611" style="enable-background:new 47.2 90.5 518.6 611;" xml:space="preserve">
<g>
	<g>
		<path d="M303.8,419.8c0.6,0,1.3,0,2,0c0.3,0,0.5,0,0.8,0c0.4,0,0.9,0,1.3,0c37.1-0.6,67.2-13.7,89.3-38.7
			c48.8-55,40.7-149.3,39.8-158.3c-3.2-67.5-35.1-99.9-61.5-114.9c-19.6-11.3-42.6-17.4-68.2-17.9h-0.9c-0.1,0-0.4,0-0.5,0h-0.8
			c-14.1,0-41.7,2.3-68.2,17.4c-26.6,15.1-59.1,47.4-62.2,115.5c-0.9,9-9,103.3,39.8,158.3C236.6,406.1,266.6,419.1,303.8,419.8z
			 M208.6,226c0-0.4,0.1-0.8,0.1-1c4.2-90.9,68.7-100.6,96.3-100.6h0.5c0.3,0,0.6,0,1,0c34.2,0.8,92.4,14.7,96.3,100.6
			c0,0.4,0,0.8,0.1,1c0.1,0.9,9,87.1-31.3,132.4c-16,18-37.3,26.9-65.3,27.1c-0.3,0-0.4,0-0.6,0l0,0c-0.3,0-0.4,0-0.6,0
			c-27.9-0.3-49.3-9.1-65.1-27.1C199.9,313.3,208.5,226.7,208.6,226z"/>
		<path d="M566.2,576.2c0-0.1,0-0.3,0-0.4c0-1-0.1-2-0.1-3.2c-0.8-25.1-2.4-83.8-57.4-102.5c-0.4-0.1-0.9-0.3-1.3-0.4
			c-57.2-14.6-104.7-47.5-105.2-47.9c-7.7-5.4-18.4-3.5-23.8,4.2c-5.4,7.7-3.5,18.4,4.2,23.8c2.2,1.5,52.6,36.6,115.7,52.8
			c29.5,10.5,32.8,42.1,33.7,71c0,1.1,0,2.2,0.1,3.2c0.1,11.4-0.6,29-2.7,39.2c-20.5,11.7-101,52-223.4,52
			c-121.9,0-202.9-40.4-223.6-52.1c-2-10.1-2.9-27.8-2.7-39.2c0-1,0.1-2,0.1-3.2c0.9-28.9,4.2-60.5,33.7-71
			c63.1-16.2,113.6-51.5,115.7-52.8c7.7-5.4,9.6-16.1,4.2-23.8c-5.4-7.7-16.1-9.6-23.8-4.2c-0.5,0.4-47.8,33.3-105.2,47.9
			c-0.5,0.1-0.9,0.3-1.3,0.4c-55,18.9-56.7,77.6-57.4,102.5c0,1.1,0,2.2-0.1,3.2c0,0.1,0,0.3,0,0.4c-0.1,6.6-0.3,40.4,6.5,57.4
			c1.3,3.3,3.5,6.1,6.6,8c3.8,2.5,94.9,60.6,247.4,60.6c152.5,0,243.6-58.2,247.4-60.6c2.9-1.9,5.3-4.7,6.6-8
			C566.5,616.6,566.4,582.7,566.2,576.2z"/>
	</g>
</g>
</svg>
