<?xml version="1.0" encoding="utf-8"?>
<!-- Generator: Adobe Illustrator 22.0.1, SVG Export Plug-In . SVG Version: 6.00 Build 0)  -->
<svg version="1.1" id="Capa_1" xmlns="http://www.w3.org/2000/svg" xmlns:xlink="http://www.w3.org/1999/xlink" x="0px" y="0px"
	 viewBox="0 88.5 612 613.3" style="enable-background:new 0 88.5 612 613.3;" xml:space="preserve">
<g>
	<path d="M306,237.3c-87.5,0-158.7,71.2-158.7,158.7S218.5,554.7,306,554.7S464.7,483.5,464.7,396S393.5,237.3,306,237.3z M306,532
		c-75,0-136-61-136-136c0-75,61-136,136-136c75,0,136,61,136,136C442,471,381,532,306,532z"/>
	<path d="M580.5,328h-22.9c-5.8-21.7-14.4-42.4-25.6-61.8l16.2-16.2c6-6,9.2-13.9,9.2-22.3c0-8.4-3.3-16.3-9.2-22.3l-51.6-51.6
		c-11.9-11.9-32.7-11.9-44.6,0L435.8,170c-19.4-11.2-40.2-19.8-61.8-25.6v-22.9c0-17.4-14.1-31.5-31.5-31.5h-73
		c-17.4,0-31.5,14.1-31.5,31.5v22.9c-21.7,5.8-42.4,14.4-61.8,25.6L160,153.8c-11.9-11.9-32.7-11.9-44.6,0l-51.6,51.6
		c-5.9,5.9-9.2,13.9-9.2,22.3c0,8.4,3.3,16.3,9.2,22.3L80,266.2c-11.2,19.4-19.8,40.2-25.6,61.8H31.5C14.1,328,0,342.1,0,359.5v73
		C0,449.9,14.1,464,31.5,464h22.9c5.8,21.7,14.4,42.4,25.6,61.8L63.8,542c-5.9,6-9.2,13.9-9.2,22.3c0,8.4,3.3,16.3,9.2,22.3
		l51.6,51.6c11.9,11.9,32.7,11.9,44.6,0l16.2-16.2c19.5,11.2,40.2,19.8,61.8,25.6v22.9c0,17.4,14.1,31.5,31.5,31.5h73
		c17.4,0,31.5-14.1,31.5-31.5v-22.9c21.7-5.8,42.4-14.4,61.8-25.6l16.2,16.2c11.9,11.9,32.7,11.9,44.6,0l51.6-51.6
		c6-6,9.2-13.9,9.2-22.3c0-8.4-3.3-16.3-9.2-22.3L532,525.8c11.2-19.5,19.8-40.2,25.6-61.8h22.9c17.4,0,31.5-14.1,31.5-31.5v-73
		C612,342.1,597.9,328,580.5,328z M589.3,432.5c0,4.9-4,8.8-8.8,8.8h-40.7l-2,8.8c-5.9,25.4-15.9,49.4-29.6,71.5l-4.8,7.6l28.8,28.8
		c3.5,3.5,3.5,9.1,0,12.5l-51.6,51.6c-3.4,3.4-9.1,3.5-12.5,0l-28.8-28.8l-7.6,4.8c-22.1,13.8-46.2,23.7-71.5,29.6l-8.8,2v40.7
		c0,4.9-4,8.8-8.8,8.8h-73c-4.9,0-8.8-4-8.8-8.8v-40.7l-8.8-2c-25.4-5.9-49.4-15.9-71.5-29.6l-7.6-4.8L144,622.1
		c-3.5,3.5-9.1,3.4-12.5,0l-51.6-51.6c-3.5-3.5-3.5-9.1,0-12.5l28.8-28.8l-4.8-7.6c-13.8-22.1-23.7-46.2-29.6-71.5l-2-8.8H31.5
		c-4.9,0-8.8-4-8.8-8.8v-73c0-4.9,4-8.8,8.8-8.8h40.7l2-8.8c5.9-25.4,15.9-49.4,29.6-71.5l4.8-7.6L79.9,234c-3.5-3.5-3.5-9.1,0-12.5
		l51.6-51.6c3.4-3.4,9.1-3.5,12.5,0l28.8,28.8l7.6-4.8c22.1-13.8,46.2-23.7,71.5-29.6l8.8-2v-40.7c0-4.9,4-8.8,8.8-8.8h73
		c4.9,0,8.9,4,8.9,8.8v40.7l8.8,2c25.4,5.9,49.4,15.9,71.5,29.6l7.6,4.8l28.8-28.8c3.5-3.5,9.1-3.4,12.5,0l51.6,51.6
		c3.5,3.5,3.5,9.1,0,12.5l-28.8,28.8l4.8,7.6c13.8,22.1,23.7,46.1,29.6,71.5l2,8.8h40.7c4.9,0,8.8,4,8.8,8.8V432.5z"/>
	<path d="M306,282.7c-62.5,0-113.3,50.8-113.3,113.3S243.5,509.3,306,509.3S419.3,458.5,419.3,396S368.5,282.7,306,282.7z
		 M306,486.7c-50,0-90.7-40.7-90.7-90.7s40.7-90.7,90.7-90.7s90.7,40.7,90.7,90.7S356,486.7,306,486.7z"/>
</g>
</svg>
