<?xml version="1.0" encoding="utf-8"?>
<!-- Generator: Adobe Illustrator 22.0.1, SVG Export Plug-In . SVG Version: 6.00 Build 0)  -->
<svg version="1.1" id="Capa_1" xmlns="http://www.w3.org/2000/svg" xmlns:xlink="http://www.w3.org/1999/xlink" x="0px" y="0px"
	 viewBox="0 120 612 552" style="enable-background:new 0 120 612 552;" xml:space="preserve">
<g>
	<g>
		<path d="M335.5,448.5H321v-88.1V349h59.6c8.2,0,15-6.7,15-15c0-8.2-6.7-15-15-15H321V172.6l31.1,31.1c5.9,5.9,15.4,5.9,21.2,0
			c5.9-5.9,5.9-15.4,0-21.2l-56.6-56.6c-2.9-2.9-6.6-4.4-10.6-4.4s-7.7,1.6-10.6,4.4l-56.7,56.7c-5.9,5.9-5.9,15.4,0,21.2
			c2.9,2.9,6.7,4.4,10.6,4.4c3.9,0,7.6-1.5,10.6-4.4l31-31.1V319h-14.5c-44,0-79.7,35.7-79.7,79.7c0,44,35.7,79.7,79.7,79.7H291
			v86.7v12.7h-61.6c-8.2,0-15,6.7-15,15c0,8.2,6.7,15,15,15H291v47.6c0,8.2,6.7,15,15,15s15-6.7,15-15v-47.6h14.5
			c44,0,79.7-35.7,79.7-79.7C415.2,484.2,379.5,448.5,335.5,448.5z M276.5,448.5c-27.4,0-49.7-22.4-49.7-49.7
			c0-27.4,22.4-49.7,49.7-49.7H291v11.4v88.1H276.5z M335.5,577.9H321v-12.7v-86.7h14.5c27.4,0,49.7,22.4,49.7,49.7
			C385.2,555.7,363,577.9,335.5,577.9z"/>
		<path d="M546.3,441.5h-8.1V376v-5.6h43.4c8.2,0,15-6.7,15-15s-6.7-15-15-15h-43.4V237.1l18.6,18.6c5.9,5.9,15.4,5.9,21.2,0
			c5.9-5.9,5.9-15.4,0-21.2l-44.2-44.2c-5.9-5.9-15.4-5.9-21.2,0l-44.4,44.4c-5.9,5.9-5.9,15.4,0,21.2c2.9,2.9,6.7,4.4,10.6,4.4
			c3.9,0,7.6-1.5,10.6-4.4l18.6-18.6v103.1h-8.1c-36.1,0-65.6,29.4-65.6,65.6c0,36.2,29.4,65.6,65.6,65.6h8.1v64.5v6.6h-44.6
			c-8.2,0-15,6.7-15,15c0,8.2,6.7,15,15,15h44.9v34c0,8.2,6.7,15,15,15c8.2,0,15-6.7,15-15v-34h8.1c36.1,0,65.6-29.4,65.6-65.6
			C612,470.7,582.5,441.5,546.3,441.5z M500.2,441.5c-19.6,0-35.6-16-35.6-35.6c0-19.6,16-35.6,35.6-35.6h8.1v5.6v65.5h-8.1V441.5z
			 M546.3,542.6h-8.1v-6.6v-64.5h8.1c19.6,0,35.6,16,35.6,35.6C581.9,526.6,565.9,542.6,546.3,542.6z"/>
		<path d="M111.8,441.5h-8.1V376v-5.6h43.4c8.2,0,15-6.7,15-15s-6.7-15-15-15h-43.4V237.1l18.6,18.6c5.9,5.9,15.4,5.9,21.2,0
			c5.9-5.9,5.9-15.4,0-21.2l-44.1-44.1c-5.9-5.9-15.4-5.9-21.2,0l-44.4,44.4c-5.9,5.9-5.9,15.4,0,21.2c2.9,2.9,6.7,4.4,10.6,4.4
			c3.9,0,7.6-1.5,10.6-4.4l18.6-18.6v103.1h-8.1C29.5,340.4,0,369.8,0,406c0,36.2,29.4,65.6,65.6,65.6h8.1v64.3v6.6H29
			c-8.2,0-15,6.7-15,15c0,8.2,6.7,15,15,15h44.9v34c0,8.2,6.7,15,15,15c8.2,0,15-6.7,15-15v-34h8.1c36.1,0,65.6-29.4,65.6-65.6
			C177.6,470.7,147.9,441.5,111.8,441.5z M65.7,441.5c-19.6,0-35.6-16-35.6-35.6c0-19.6,16-35.6,35.6-35.6h8.1v5.6v65.5h-8.1V441.5z
			 M111.8,542.6h-8.1v-6.6v-64.5h8.1c19.6,0,35.6,16,35.6,35.6C147.4,526.6,131.4,542.6,111.8,542.6z"/>
	</g>
</g>
</svg>
